<svg xmlns="http://www.w3.org/2000/svg" xmlns:xlink="http://www.w3.org/1999/xlink" width="500" zoomAndPan="magnify" viewBox="0 0 375 374.999991" height="500" preserveAspectRatio="xMidYMid meet" version="1.0"><defs><clipPath id="7dcb12e6a8"><path d="M 38.25 37.5 L 174 37.5 L 174 174 L 38.25 174 Z M 38.25 37.5 " clip-rule="nonzero"/></clipPath><clipPath id="367396176a"><path d="M 201 37.5 L 337.5 37.5 L 337.5 174 L 201 174 Z M 201 37.5 " clip-rule="nonzero"/></clipPath><clipPath id="0eb8450eac"><path d="M 38.25 201 L 174 201 L 174 337.5 L 38.25 337.5 Z M 38.25 201 " clip-rule="nonzero"/></clipPath><clipPath id="535d7d5058"><path d="M 201 201 L 337.5 201 L 337.5 337.5 L 201 337.5 Z M 201 201 " clip-rule="nonzero"/></clipPath></defs><path fill="#ffffff" d="M 237.34375 271.25 C 241.921875 276.929688 248.796875 280.1875 256.207031 280.1875 C 269.652344 280.1875 280.589844 269.246094 280.589844 255.800781 C 280.589844 248.390625 277.335938 241.515625 271.65625 236.9375 C 256.609375 224.804688 247.980469 206.773438 247.980469 187.46875 C 247.980469 168.167969 256.609375 150.136719 271.65625 138.003906 C 277.335938 133.425781 280.589844 126.550781 280.589844 119.140625 C 280.589844 105.695312 269.652344 94.753906 256.203125 94.753906 C 248.796875 94.753906 241.921875 98.011719 237.34375 103.691406 C 225.207031 118.734375 207.179688 127.367188 187.875 127.367188 C 168.570312 127.367188 150.542969 118.734375 138.40625 103.691406 C 133.828125 98.011719 126.953125 94.753906 119.546875 94.753906 C 106.097656 94.753906 95.160156 105.695312 95.160156 119.140625 C 95.160156 126.550781 98.414062 133.425781 104.09375 138.003906 C 119.140625 150.136719 127.769531 168.167969 127.769531 187.46875 C 127.769531 206.773438 119.140625 224.804688 104.09375 236.9375 C 98.414062 241.515625 95.160156 248.390625 95.160156 255.800781 C 95.160156 269.246094 106.097656 280.1875 119.546875 280.1875 C 126.953125 280.1875 133.828125 276.929688 138.40625 271.25 C 150.542969 256.203125 168.570312 247.574219 187.875 247.574219 C 207.179688 247.574219 225.207031 256.203125 237.34375 271.25 Z M 131.058594 265.324219 C 128.28125 268.765625 124.085938 270.742188 119.546875 270.742188 C 111.304688 270.742188 104.601562 264.039062 104.601562 255.800781 C 104.601562 251.261719 106.578125 247.066406 110.023438 244.289062 C 127.304688 230.355469 137.214844 209.644531 137.214844 187.46875 C 137.214844 165.296875 127.304688 144.585938 110.023438 130.652344 C 106.578125 127.875 104.601562 123.679688 104.601562 119.140625 C 104.601562 110.902344 111.304688 104.199219 119.546875 104.199219 C 124.085938 104.199219 128.28125 106.175781 131.058594 109.617188 C 144.992188 126.898438 165.703125 136.808594 187.875 136.808594 C 210.046875 136.808594 230.757812 126.898438 244.691406 109.617188 C 247.46875 106.175781 251.667969 104.199219 256.207031 104.199219 C 264.445312 104.199219 271.148438 110.902344 271.148438 119.140625 C 271.148438 123.679688 269.171875 127.875 265.726562 130.652344 C 248.445312 144.585938 238.535156 165.296875 238.535156 187.46875 C 238.535156 209.644531 248.445312 230.351562 265.726562 244.289062 C 269.171875 247.066406 271.148438 251.261719 271.148438 255.800781 C 271.148438 264.039062 264.445312 270.742188 256.203125 270.742188 C 251.667969 270.742188 247.46875 268.765625 244.691406 265.324219 C 230.757812 248.042969 210.046875 238.132812 187.875 238.132812 C 165.703125 238.132812 144.992188 248.042969 131.058594 265.324219 Z M 131.058594 265.324219 " fill-opacity="1" fill-rule="nonzero"/><g clip-path="url(#7dcb12e6a8)"><path fill="#ffffff" d="M 106.035156 173.300781 C 108.640625 173.300781 110.753906 171.1875 110.753906 168.578125 C 110.753906 165.972656 108.640625 163.859375 106.035156 163.859375 C 73.855469 163.859375 47.679688 137.679688 47.679688 105.503906 C 47.679688 73.328125 73.855469 47.148438 106.035156 47.148438 C 138.210938 47.148438 164.386719 73.328125 164.386719 105.503906 C 164.386719 108.109375 166.5 110.226562 169.109375 110.226562 C 171.71875 110.226562 173.832031 108.109375 173.832031 105.503906 C 173.832031 68.121094 143.417969 37.707031 106.035156 37.707031 C 68.648438 37.707031 38.234375 68.121094 38.234375 105.503906 C 38.234375 142.886719 68.648438 173.300781 106.035156 173.300781 Z M 106.035156 173.300781 " fill-opacity="1" fill-rule="nonzero"/></g><g clip-path="url(#367396176a)"><path fill="#ffffff" d="M 206.640625 110.226562 C 209.246094 110.226562 211.363281 108.109375 211.363281 105.503906 C 211.363281 73.328125 237.539062 47.148438 269.714844 47.148438 C 301.894531 47.148438 328.070312 73.328125 328.070312 105.503906 C 328.070312 137.679688 301.894531 163.859375 269.714844 163.859375 C 267.109375 163.859375 264.996094 165.972656 264.996094 168.578125 C 264.996094 171.1875 267.109375 173.300781 269.714844 173.300781 C 307.101562 173.300781 337.515625 142.886719 337.515625 105.503906 C 337.515625 68.121094 307.101562 37.707031 269.714844 37.707031 C 232.332031 37.707031 201.917969 68.121094 201.917969 105.503906 C 201.917969 108.109375 204.03125 110.226562 206.640625 110.226562 Z M 206.640625 110.226562 " fill-opacity="1" fill-rule="nonzero"/></g><g clip-path="url(#0eb8450eac)"><path fill="#ffffff" d="M 169.109375 264.714844 C 166.5 264.714844 164.386719 266.828125 164.386719 269.4375 C 164.386719 301.613281 138.210938 327.792969 106.035156 327.792969 C 73.855469 327.792969 47.679688 301.613281 47.679688 269.4375 C 47.679688 237.261719 73.855469 211.082031 106.035156 211.082031 C 108.640625 211.082031 110.753906 208.96875 110.753906 206.359375 C 110.753906 203.753906 108.640625 201.640625 106.035156 201.640625 C 68.648438 201.640625 38.234375 232.054688 38.234375 269.4375 C 38.234375 306.820312 68.648438 337.234375 106.035156 337.234375 C 143.417969 337.234375 173.832031 306.820312 173.832031 269.4375 C 173.832031 266.828125 171.71875 264.714844 169.109375 264.714844 Z M 169.109375 264.714844 " fill-opacity="1" fill-rule="nonzero"/></g><g clip-path="url(#535d7d5058)"><path fill="#ffffff" d="M 269.714844 201.640625 C 267.109375 201.640625 264.996094 203.753906 264.996094 206.359375 C 264.996094 208.96875 267.109375 211.082031 269.714844 211.082031 C 301.894531 211.082031 328.070312 237.261719 328.070312 269.4375 C 328.070312 301.613281 301.894531 327.792969 269.714844 327.792969 C 237.539062 327.792969 211.363281 301.613281 211.363281 269.4375 C 211.363281 266.828125 209.246094 264.714844 206.640625 264.714844 C 204.03125 264.714844 201.917969 266.828125 201.917969 269.4375 C 201.917969 306.820312 232.332031 337.234375 269.714844 337.234375 C 307.101562 337.234375 337.515625 306.820312 337.515625 269.4375 C 337.515625 232.054688 307.101562 201.640625 269.714844 201.640625 Z M 269.714844 201.640625 " fill-opacity="1" fill-rule="nonzero"/></g><path fill="#ffffff" d="M 198.550781 182.75 L 177.199219 182.75 C 174.589844 182.75 172.476562 184.863281 172.476562 187.46875 C 172.476562 190.078125 174.589844 192.191406 177.199219 192.191406 L 198.550781 192.191406 C 201.15625 192.191406 203.273438 190.078125 203.273438 187.46875 C 203.273438 184.863281 201.15625 182.75 198.550781 182.75 Z M 198.550781 182.75 " fill-opacity="1" fill-rule="nonzero"/></svg>